<?xml version="1.0" encoding="UTF-8"?>
<!DOCTYPE svg PUBLIC "-//W3C//DTD SVG 1.1//EN" "http://www.w3.org/Graphics/SVG/1.1/DTD/svg11.dtd">
<svg xmlns="http://www.w3.org/2000/svg" version="1.1" width="251px" height="299px" style="shape-rendering:geometricPrecision; text-rendering:geometricPrecision; image-rendering:optimizeQuality; fill-rule:evenodd; clip-rule:evenodd" xmlns:xlink="http://www.w3.org/1999/xlink">
<g><path style="opacity:1" fill="#a53b4c" d="M -0.5,-0.5 C 83.1667,-0.5 166.833,-0.5 250.5,-0.5C 250.5,24.1667 250.5,48.8333 250.5,73.5C 249.603,74.5981 248.77,74.5981 248,73.5C 247.5,74.6667 246.667,75.5 245.5,76C 246.517,77.0495 246.684,78.2161 246,79.5C 245,77.5 244,75.5 243,73.5C 242.716,75.8856 241.716,76.5523 240,75.5C 239.689,74.2575 240.189,73.2575 241.5,72.5C 241.291,71.914 240.957,71.414 240.5,71C 238.687,71.0464 237.021,70.8797 235.5,70.5C 236.5,66.8333 238.167,66.5 240.5,69.5C 241.747,67.9936 241.747,66.4936 240.5,65C 238.636,63.5945 236.803,63.0945 235,63.5C 234.544,64.7441 235.044,65.5774 236.5,66C 234.17,68.0913 232.17,67.9246 230.5,65.5C 230.662,63.4727 230.495,61.4727 230,59.5C 227.419,58.6101 226.086,56.9434 226,54.5C 227.368,56.8146 228.201,56.8146 228.5,54.5C 228.096,52.2363 228.096,50.0697 228.5,48C 227.551,47.3828 226.718,47.5494 226,48.5C 225.517,47.552 225.351,46.552 225.5,45.5C 226.5,45.5 227.5,45.5 228.5,45.5C 228.338,43.4727 228.505,41.4727 229,39.5C 229.654,40.6956 230.154,40.6956 230.5,39.5C 229.691,37.9291 229.357,36.2624 229.5,34.5C 227.799,34.0338 226.299,34.0338 225,34.5C 224.167,33.5 223.333,32.5 222.5,31.5C 219.39,31.1947 216.39,31.8614 213.5,33.5C 215.427,30.2327 217.761,27.2327 220.5,24.5C 220,24.1667 219.5,23.8333 219,23.5C 212.049,27.0572 205.216,30.7238 198.5,34.5C 198.119,32.0582 198.786,31.3915 200.5,32.5C 201.584,29.9121 203.251,27.7455 205.5,26C 204.175,26.1484 203.008,25.9817 202,25.5C 200.691,27.8912 199.691,27.8912 199,25.5C 197.102,28.1301 195.269,28.4635 193.5,26.5C 193.693,27.6882 193.193,29.0215 192,30.5C 191.667,29.8333 191.333,29.1667 191,28.5C 189.302,30.274 187.469,31.9406 185.5,33.5C 184.227,33.2545 183.06,33.2545 182,33.5C 177.548,39.1318 172.215,40.7984 166,38.5C 164.833,40.3333 163.333,41.8333 161.5,43C 161.833,43.3333 162.167,43.6667 162.5,44C 161.209,42.97 159.209,42.47 156.5,42.5C 156.167,42.8333 155.833,43.1667 155.5,43.5C 156.376,44.2508 157.376,44.7508 158.5,45C 156.579,45.3603 154.912,46.1936 153.5,47.5C 152.28,46.2889 151.113,46.2889 150,47.5C 149.195,45.0989 148.362,45.2656 147.5,48C 147.833,48.3333 148.167,48.6667 148.5,49C 144.399,49.5887 140.566,50.7553 137,52.5C 136.667,51.8333 136.333,51.1667 136,50.5C 134.67,51.5822 133.17,52.2488 131.5,52.5C 132.914,50.4017 132.248,49.4017 129.5,49.5C 124.695,48.5128 119.695,48.1795 114.5,48.5C 115.341,46.4885 116.841,45.1552 119,44.5C 123.141,43.9514 127.641,43.9514 132.5,44.5C 132.769,42.5714 132.269,40.9047 131,39.5C 130.333,40.1667 129.667,40.8333 129,41.5C 128.101,39.6316 126.601,38.6316 124.5,38.5C 121.2,38.9223 117.534,39.2557 113.5,39.5C 111.06,38.1068 108.393,37.2734 105.5,37C 113.12,37.1196 113.453,35.6196 106.5,32.5C 105.575,33.6405 104.741,33.6405 104,32.5C 103.683,34.3008 103.016,34.6341 102,33.5C 101.667,34.1667 101.333,34.8333 101,35.5C 97.9151,34.5535 94.7484,34.7202 91.5,36C 90.0089,37.9102 88.5089,39.0769 87,39.5C 86.3162,38.2161 86.4829,37.0495 87.5,36C 86.9535,35.0754 86.2868,34.2421 85.5,33.5C 84.7849,35.5632 84.7849,37.8965 85.5,40.5C 84.7246,44.251 83.3912,44.4177 81.5,41C 83.4439,38.8471 83.9439,36.3471 83,33.5C 81.3117,34.3247 81.1451,35.3247 82.5,36.5C 78.9065,36.9259 76.7398,38.9259 76,42.5C 73.2596,40.6403 70.7596,40.6403 68.5,42.5C 66.415,40.4121 64.2483,38.4121 62,36.5C 59.5753,37.6166 57.4086,39.1166 55.5,41C 57.3373,43.1421 57.6706,45.3087 56.5,47.5C 53.7836,45.6994 50.7836,45.5327 47.5,47C 45.8333,48.3333 44.1667,49.6667 42.5,51C 39.5321,51.1695 36.6988,51.3362 34,51.5C 33.5774,50.0439 32.7441,49.5439 31.5,50C 31.9574,50.414 32.2907,50.914 32.5,51.5C 31.1667,52.1667 29.8333,52.8333 28.5,53.5C 29.5217,54.354 30.3551,55.354 31,56.5C 35.1919,53.4969 36.0252,53.9969 33.5,58C 34.3333,58.8333 35.1667,59.6667 36,60.5C 36.974,55.6309 38.8073,55.2976 41.5,59.5C 39.1879,60.3414 36.8546,61.3414 34.5,62.5C 33.5,62.8333 32.8333,63.5 32.5,64.5C 31.7828,66.9534 30.6162,69.2867 29,71.5C 27.512,70.8042 26.012,71.1375 24.5,72.5C 25.1831,75.4614 26.0164,75.7947 27,73.5C 27.8403,76.4637 28.8403,76.797 30,74.5C 30.3742,75.4162 30.8742,76.2496 31.5,77C 29.0993,79.0624 26.4326,80.7291 23.5,82C 23.9582,84.3977 25.2915,86.0644 27.5,87C 26.3128,88.0195 25.3128,89.1861 24.5,90.5C 26.9166,92.4935 26.9166,94.3268 24.5,96C 25.8333,97.3333 27.1667,98.6667 28.5,100C 24.0593,102.275 23.7259,104.775 27.5,107.5C 27.1227,109.824 26.1227,110.491 24.5,109.5C 23.4096,110.727 22.0762,111.56 20.5,112C 22.3671,112.919 24.3671,113.419 26.5,113.5C 26.7093,114.086 27.0426,114.586 27.5,115C 21.0868,115.255 20.9202,116.422 27,118.5C 27.4828,119.448 27.6495,120.448 27.5,121.5C 25.5714,121.231 23.9047,121.731 22.5,123C 24.1193,123.236 25.1193,124.069 25.5,125.5C 20.9369,126.047 20.6035,127.214 24.5,129C 23.2341,129.309 22.0674,129.809 21,130.5C 19.5834,128.345 18.7501,126.345 18.5,124.5C 17.0944,125.668 15.9277,125.335 15,123.5C 13.951,125.107 12.451,125.773 10.5,125.5C 10.67,124.178 10.3366,123.011 9.5,122C 11.5,121.667 13.5,121.333 15.5,121C 13.9391,120.682 12.7724,119.849 12,118.5C 11.6667,118.833 11.3333,119.167 11,119.5C 10.6667,117.167 10.3333,114.833 10,112.5C 9.63225,111.09 8.79892,110.09 7.5,109.5C 6.28882,110.274 6.28882,111.107 7.5,112C 5.59806,113.394 5.26472,115.227 6.5,117.5C 4.5328,117.261 2.69946,117.594 1,118.5C 2.00837,116.634 1.50837,115.301 -0.5,114.5C -0.5,76.1667 -0.5,37.8333 -0.5,-0.5 Z"/></g>
<g><path style="opacity:1" fill="#fefcfc" d="M 213.5,33.5 C 208.052,37.6087 203.719,42.6087 200.5,48.5C 198.552,50.7887 196.552,53.122 194.5,55.5C 196.95,57.8671 199.95,58.8671 203.5,58.5C 207.867,59.7277 212.2,61.061 216.5,62.5C 215.239,99.1618 215.239,135.829 216.5,172.5C 215.038,181.22 212.371,189.554 208.5,197.5C 204.43,204.075 199.43,209.908 193.5,215C 186.434,219.856 179.434,224.689 172.5,229.5C 170.326,229.75 168.659,230.75 167.5,232.5C 161.558,235.139 155.892,238.139 150.5,241.5C 146.639,242.849 142.973,244.682 139.5,247C 134.279,249.02 128.945,250.52 123.5,251.5C 121.824,249.166 119.491,248.166 116.5,248.5C 116.167,248.5 115.833,248.5 115.5,248.5C 112.785,246.928 109.785,245.928 106.5,245.5C 105.374,244.142 105.374,242.808 106.5,241.5C 127.783,229.529 148.783,217.196 169.5,204.5C 173.392,202.938 176.725,200.605 179.5,197.5C 188.824,188.879 194.158,178.212 195.5,165.5C 196.654,159.013 196.821,152.346 196,145.5C 195.295,142.524 194.129,139.858 192.5,137.5C 184.353,119.909 170.686,109.242 151.5,105.5C 145.347,104.347 139.014,104.18 132.5,105C 131.584,105.278 130.918,105.778 130.5,106.5C 130.167,106.5 129.833,106.5 129.5,106.5C 126.084,106.528 123.084,107.528 120.5,109.5C 112.793,112.438 105.96,116.771 100,122.5C 98.3809,128.032 99.8809,132.366 104.5,135.5C 107.698,136.7 111.031,136.7 114.5,135.5C 117.198,135.155 119.198,133.822 120.5,131.5C 122.404,131.262 123.738,130.262 124.5,128.5C 126.117,127.962 127.784,127.629 129.5,127.5C 138.064,125.247 146.731,124.914 155.5,126.5C 158.83,128.162 162.164,129.828 165.5,131.5C 169.648,135.977 172.982,140.977 175.5,146.5C 176.307,152.464 176.64,158.464 176.5,164.5C 176.5,164.833 176.5,165.167 176.5,165.5C 175.054,168.254 174.054,171.254 173.5,174.5C 171.836,177.159 170.17,179.825 168.5,182.5C 161.064,187.206 153.731,191.872 146.5,196.5C 131.805,204.28 117.472,212.613 103.5,221.5C 91.3369,227.411 79.6703,234.078 68.5,241.5C 59.3338,245.673 50.6671,250.673 42.5,256.5C 40.8212,256.715 39.8212,256.048 39.5,254.5C 48.5259,243.47 57.1925,232.137 65.5,220.5C 64.1482,219.476 62.8149,218.476 61.5,217.5C 50.3217,208.81 42.3217,197.81 37.5,184.5C 36.6063,180.532 35.773,176.532 35,172.5C 34.5,135.835 34.3333,99.1682 34.5,62.5C 36.8546,61.3414 39.1879,60.3414 41.5,59.5C 50.1978,58.3296 58.8644,56.9963 67.5,55.5C 74.4074,55.2457 81.0741,54.2457 87.5,52.5C 88.8333,52.5 90.1667,52.5 91.5,52.5C 97.3895,52.5503 103.056,51.8836 108.5,50.5C 115.412,49.5379 122.412,49.2045 129.5,49.5C 132.248,49.4017 132.914,50.4017 131.5,52.5C 125.835,54.9969 120.502,57.9969 115.5,61.5C 108.004,64.7448 101.004,68.7448 94.5,73.5C 80.4452,79.389 69.2785,88.7223 61,101.5C 58.7983,105.606 57.2983,109.939 56.5,114.5C 55.3434,122.656 55.1768,130.99 56,139.5C 57.3048,143.901 59.1382,147.901 61.5,151.5C 65.3879,160.721 71.7212,167.721 80.5,172.5C 83.4974,175.496 87.164,177.163 91.5,177.5C 91.5,178.167 91.8333,178.5 92.5,178.5C 94.5994,179.612 96.9327,180.279 99.5,180.5C 102.482,181.165 105.648,181.498 109,181.5C 113.772,181.692 118.272,181.025 122.5,179.5C 123.167,179.5 123.5,179.167 123.5,178.5C 131.833,175.501 139.833,171.668 147.5,167C 148.71,165.961 149.71,164.794 150.5,163.5C 153.065,159.865 153.065,156.199 150.5,152.5C 150.5,150.5 149.5,149.5 147.5,149.5C 147.167,149.5 146.833,149.5 146.5,149.5C 143.373,148.185 140.373,148.518 137.5,150.5C 135.973,150.427 134.973,151.094 134.5,152.5C 128.783,155.211 123.117,157.878 117.5,160.5C 111.448,161.687 105.448,161.687 99.5,160.5C 97.8243,158.166 95.491,157.166 92.5,157.5C 84.4367,153.092 78.9367,146.425 76,137.5C 71.6559,120.195 76.8225,106.529 91.5,96.5C 108.502,87.335 125.169,77.6683 141.5,67.5C 141.833,67.5 142.167,67.5 142.5,67.5C 161.235,56.4717 179.901,45.4717 198.5,34.5C 205.216,30.7238 212.049,27.0572 219,23.5C 219.5,23.8333 220,24.1667 220.5,24.5C 217.761,27.2327 215.427,30.2327 213.5,33.5 Z"/></g>
<g><path style="opacity:1" fill="#a8394d" d="M 114.5,48.5 C 104.507,49.2157 94.5071,50.049 84.5,51C 83.944,51.3826 83.6107,51.8826 83.5,52.5C 77.9391,52.9556 72.6058,53.9556 67.5,55.5C 58.8644,56.9963 50.1978,58.3296 41.5,59.5C 38.8073,55.2976 36.974,55.6309 36,60.5C 35.1667,59.6667 34.3333,58.8333 33.5,58C 36.0252,53.9969 35.1919,53.4969 31,56.5C 30.3551,55.354 29.5217,54.354 28.5,53.5C 29.8333,52.8333 31.1667,52.1667 32.5,51.5C 32.2907,50.914 31.9574,50.414 31.5,50C 32.7441,49.5439 33.5774,50.0439 34,51.5C 36.6988,51.3362 39.5321,51.1695 42.5,51C 44.1667,49.6667 45.8333,48.3333 47.5,47C 50.7836,45.5327 53.7836,45.6994 56.5,47.5C 57.6706,45.3087 57.3373,43.1421 55.5,41C 57.4086,39.1166 59.5753,37.6166 62,36.5C 64.2483,38.4121 66.415,40.4121 68.5,42.5C 70.7596,40.6403 73.2596,40.6403 76,42.5C 76.7398,38.9259 78.9065,36.9259 82.5,36.5C 81.1451,35.3247 81.3117,34.3247 83,33.5C 83.9439,36.3471 83.4439,38.8471 81.5,41C 83.3912,44.4177 84.7246,44.251 85.5,40.5C 84.7849,37.8965 84.7849,35.5632 85.5,33.5C 86.2868,34.2421 86.9535,35.0754 87.5,36C 86.4829,37.0495 86.3162,38.2161 87,39.5C 88.5089,39.0769 90.0089,37.9102 91.5,36C 94.7484,34.7202 97.9151,34.5535 101,35.5C 101.333,34.8333 101.667,34.1667 102,33.5C 103.016,34.6341 103.683,34.3008 104,32.5C 104.741,33.6405 105.575,33.6405 106.5,32.5C 113.453,35.6196 113.12,37.1196 105.5,37C 108.393,37.2734 111.06,38.1068 113.5,39.5C 117.534,39.2557 121.2,38.9223 124.5,38.5C 126.601,38.6316 128.101,39.6316 129,41.5C 129.667,40.8333 130.333,40.1667 131,39.5C 132.269,40.9047 132.769,42.5714 132.5,44.5C 127.641,43.9514 123.141,43.9514 119,44.5C 116.841,45.1552 115.341,46.4885 114.5,48.5 Z"/></g>
<g><path style="opacity:1" fill="#b03b51" d="M 198.5,34.5 C 179.901,45.4717 161.235,56.4717 142.5,67.5C 142.34,65.8008 142.506,64.1341 143,62.5C 144.113,61.2889 145.28,61.2889 146.5,62.5C 147.835,56.4152 146.335,55.4152 142,59.5C 140.66,58.1322 139.326,56.7989 138,55.5C 136.968,57.1445 135.801,57.4779 134.5,56.5C 133.059,57.304 131.559,57.9706 130,58.5C 129.333,57.8333 128.667,57.1667 128,56.5C 125.433,57.8676 122.933,59.3676 120.5,61C 118.866,61.4935 117.199,61.6602 115.5,61.5C 120.502,57.9969 125.835,54.9969 131.5,52.5C 133.17,52.2488 134.67,51.5822 136,50.5C 136.333,51.1667 136.667,51.8333 137,52.5C 140.566,50.7553 144.399,49.5887 148.5,49C 148.167,48.6667 147.833,48.3333 147.5,48C 148.362,45.2656 149.195,45.0989 150,47.5C 151.113,46.2889 152.28,46.2889 153.5,47.5C 154.912,46.1936 156.579,45.3603 158.5,45C 157.376,44.7508 156.376,44.2508 155.5,43.5C 155.833,43.1667 156.167,42.8333 156.5,42.5C 159.209,42.47 161.209,42.97 162.5,44C 162.167,43.6667 161.833,43.3333 161.5,43C 163.333,41.8333 164.833,40.3333 166,38.5C 172.215,40.7984 177.548,39.1318 182,33.5C 183.06,33.2545 184.227,33.2545 185.5,33.5C 187.469,31.9406 189.302,30.274 191,28.5C 191.333,29.1667 191.667,29.8333 192,30.5C 193.193,29.0215 193.693,27.6882 193.5,26.5C 195.269,28.4635 197.102,28.1301 199,25.5C 199.691,27.8912 200.691,27.8912 202,25.5C 203.008,25.9817 204.175,26.1484 205.5,26C 203.251,27.7455 201.584,29.9121 200.5,32.5C 198.786,31.3915 198.119,32.0582 198.5,34.5 Z"/></g>
<g><path style="opacity:1" fill="#a64e5d" d="M 114.5,48.5 C 119.695,48.1795 124.695,48.5128 129.5,49.5C 122.412,49.2045 115.412,49.5379 108.5,50.5C 102.611,50.4497 96.9438,51.1164 91.5,52.5C 90.1667,52.5 88.8333,52.5 87.5,52.5C 86.1667,52.5 84.8333,52.5 83.5,52.5C 83.6107,51.8826 83.944,51.3826 84.5,51C 94.5071,50.049 104.507,49.2157 114.5,48.5 Z"/></g>
<g><path style="opacity:1" fill="#e8d4d3" d="M 108.5,50.5 C 103.056,51.8836 97.3895,52.5503 91.5,52.5C 96.9438,51.1164 102.611,50.4497 108.5,50.5 Z"/></g>
<g><path style="opacity:1" fill="#e1b8c0" d="M 83.5,52.5 C 84.8333,52.5 86.1667,52.5 87.5,52.5C 81.0741,54.2457 74.4074,55.2457 67.5,55.5C 72.6058,53.9556 77.9391,52.9556 83.5,52.5 Z"/></g>
<g><path style="opacity:1" fill="#bd3d60" d="M 203.5,58.5 C 199.95,58.8671 196.95,57.8671 194.5,55.5C 196.552,53.122 198.552,50.7887 200.5,48.5C 203.249,47.0952 206.083,45.7619 209,44.5C 210.073,46.5466 211.239,48.5466 212.5,50.5C 211.005,55.0021 208.005,57.6687 203.5,58.5 Z"/></g>
<g><path style="opacity:1" fill="#b83953" d="M 142.5,67.5 C 142.167,67.5 141.833,67.5 141.5,67.5C 140.504,67.5858 139.671,67.2524 139,66.5C 137.316,68.7007 135.316,69.3673 133,68.5C 132.632,69.91 131.799,70.91 130.5,71.5C 129.304,71.1543 129.304,70.6543 130.5,70C 128.345,68.6431 126.178,68.4764 124,69.5C 121.461,71.5833 118.627,73.0833 115.5,74C 116.03,76.1363 115.197,77.9696 113,79.5C 109.914,77.78 107.581,78.4466 106,81.5C 105.667,80.8333 105.333,80.1667 105,79.5C 102.642,82.5112 99.1422,84.8445 94.5,86.5C 93.6919,86.1924 93.0253,85.6924 92.5,85C 93.6721,84.5814 94.6721,83.9147 95.5,83C 94.2528,81.5064 94.2528,80.0064 95.5,78.5C 99.5383,74.6277 104.205,71.7944 109.5,70C 110.833,69.3333 110.833,68.6667 109.5,68C 111.301,67.6827 111.634,67.016 110.5,66C 113.115,65.3881 114.781,63.8881 115.5,61.5C 117.199,61.6602 118.866,61.4935 120.5,61C 122.933,59.3676 125.433,57.8676 128,56.5C 128.667,57.1667 129.333,57.8333 130,58.5C 131.559,57.9706 133.059,57.304 134.5,56.5C 135.801,57.4779 136.968,57.1445 138,55.5C 139.326,56.7989 140.66,58.1322 142,59.5C 146.335,55.4152 147.835,56.4152 146.5,62.5C 145.28,61.2889 144.113,61.2889 143,62.5C 142.506,64.1341 142.34,65.8008 142.5,67.5 Z"/></g>
<g><path style="opacity:1" fill="#b83d58" d="M 115.5,61.5 C 114.781,63.8881 113.115,65.3881 110.5,66C 111.634,67.016 111.301,67.6827 109.5,68C 110.833,68.6667 110.833,69.3333 109.5,70C 104.205,71.7944 99.5383,74.6277 95.5,78.5C 94.2528,80.0064 94.2528,81.5064 95.5,83C 94.6721,83.9147 93.6721,84.5814 92.5,85C 93.0253,85.6924 93.6919,86.1924 94.5,86.5C 99.1422,84.8445 102.642,82.5112 105,79.5C 105.333,80.1667 105.667,80.8333 106,81.5C 107.581,78.4466 109.914,77.78 113,79.5C 115.197,77.9696 116.03,76.1363 115.5,74C 118.627,73.0833 121.461,71.5833 124,69.5C 126.178,68.4764 128.345,68.6431 130.5,70C 129.304,70.6543 129.304,71.1543 130.5,71.5C 131.799,70.91 132.632,69.91 133,68.5C 135.316,69.3673 137.316,68.7007 139,66.5C 139.671,67.2524 140.504,67.5858 141.5,67.5C 125.169,77.6683 108.502,87.335 91.5,96.5C 89.7428,95.708 88.4095,94.3747 87.5,92.5C 85.9579,93.7468 84.4579,93.7468 83,92.5C 82,93.8333 81,95.1667 80,96.5C 79.5488,94.0712 78.7155,93.9045 77.5,96C 77.8333,96.3333 78.1667,96.6667 78.5,97C 76.7339,98.6978 74.7339,100.031 72.5,101C 73.8333,101.667 73.8333,102.333 72.5,103C 71.2068,103.49 69.8734,103.657 68.5,103.5C 68.4218,108.371 67.2552,108.371 65,103.5C 63.6299,112.542 62.7965,112.209 62.5,102.5C 63.8221,102.67 64.9887,102.337 66,101.5C 66.4955,99.5273 66.6621,97.5273 66.5,95.5C 70.9807,96.0366 72.314,94.3699 70.5,90.5C 73.245,90.627 75.245,89.4603 76.5,87C 78.4406,86.2571 80.2739,86.4238 82,87.5C 85.2271,84.7372 88.3937,81.9038 91.5,79C 91.1667,78.6667 90.8333,78.3333 90.5,78C 92.751,77.2525 94.0844,75.7525 94.5,73.5C 101.004,68.7448 108.004,64.7448 115.5,61.5 Z"/></g>
<g><path style="opacity:1" fill="#cc8190" d="M 151.5,105.5 C 144.465,105.326 137.465,105.659 130.5,106.5C 130.918,105.778 131.584,105.278 132.5,105C 139.014,104.18 145.347,104.347 151.5,105.5 Z"/></g>
<g><path style="opacity:1" fill="#c17580" d="M 129.5,106.5 C 128.5,107.167 127.5,107.833 126.5,108.5C 124.565,109.15 122.565,109.483 120.5,109.5C 123.084,107.528 126.084,106.528 129.5,106.5 Z"/></g>
<g><path style="opacity:1" fill="#b93d58" d="M 165.5,131.5 C 162.164,129.828 158.83,128.162 155.5,126.5C 148.505,123.217 141.172,122.717 133.5,125C 131.68,125.2 130.347,126.034 129.5,127.5C 127.784,127.629 126.117,127.962 124.5,128.5C 122.596,128.738 121.262,129.738 120.5,131.5C 118.456,132.508 116.456,133.508 114.5,134.5C 111.214,135.207 107.881,135.54 104.5,135.5C 99.8809,132.366 98.3809,128.032 100,122.5C 105.96,116.771 112.793,112.438 120.5,109.5C 122.565,109.483 124.565,109.15 126.5,108.5C 134.769,106.546 143.102,106.212 151.5,107.5C 149.922,108.298 148.256,108.798 146.5,109C 149.208,109.236 151.708,110.069 154,111.5C 155.365,110.544 156.865,109.878 158.5,109.5C 165.154,110.994 171.154,113.828 176.5,118C 175.833,119.333 174.833,120.333 173.5,121C 175.421,121.36 177.088,122.194 178.5,123.5C 177.265,126.044 176.099,126.044 175,123.5C 174.333,124.833 174.333,126.167 175,127.5C 176.545,126.179 177.711,126.512 178.5,128.5C 177.754,129.736 177.421,131.07 177.5,132.5C 175.302,131.986 173.302,130.986 171.5,129.5C 170.614,130.325 170.281,131.325 170.5,132.5C 168.784,132.371 167.117,132.038 165.5,131.5 Z"/></g>
<g><path style="opacity:1" fill="#eabfc4" d="M 155.5,126.5 C 146.731,124.914 138.064,125.247 129.5,127.5C 130.347,126.034 131.68,125.2 133.5,125C 141.172,122.717 148.505,123.217 155.5,126.5 Z"/></g>
<g><path style="opacity:1" fill="#da9ea6" d="M 124.5,128.5 C 123.738,130.262 122.404,131.262 120.5,131.5C 121.262,129.738 122.596,128.738 124.5,128.5 Z"/></g>
<g><path style="opacity:1" fill="#a33851" d="M 32.5,64.5 C 32.7394,66.4672 32.4061,68.3005 31.5,70C 32.3297,104.095 32.8297,138.262 33,172.5C 33.7873,176.179 34.6207,179.846 35.5,183.5C 36.1835,183.863 36.8501,184.196 37.5,184.5C 42.3217,197.81 50.3217,208.81 61.5,217.5C 62.6104,222.929 60.4437,226.595 55,228.5C 54.0853,227.672 53.4186,226.672 53,225.5C 52.7006,228.469 51.2006,229.969 48.5,230C 50.6157,228.829 51.2824,227.329 50.5,225.5C 48.3671,225.419 46.3671,224.919 44.5,224C 45.8333,222 45.8333,220 44.5,218C 45.624,217.751 46.624,217.251 47.5,216.5C 46.1667,215.5 46.1667,214.5 47.5,213.5C 46.6533,212.155 45.4866,211.155 44,210.5C 43.3162,209.216 43.4829,208.049 44.5,207C 42.8659,206.506 41.1992,206.34 39.5,206.5C 39.2033,203.052 37.8699,200.052 35.5,197.5C 36.0253,196.808 36.6919,196.308 37.5,196C 32.9462,191.341 30.9462,185.841 31.5,179.5C 30.3966,179.002 29.3966,178.669 28.5,178.5C 29.8624,175.781 29.5291,173.281 27.5,171C 27.9054,170.055 28.572,169.388 29.5,169C 28.2718,166.86 26.6051,165.193 24.5,164C 27.7626,163.131 28.0959,161.797 25.5,160C 28.5327,156.429 27.8661,153.762 23.5,152C 26.1934,151.973 27.5267,150.64 27.5,148C 26.2933,144.983 26.2933,141.983 27.5,139C 26.1646,137.326 24.8312,135.659 23.5,134C 28.0155,133.763 28.6822,132.097 25.5,129C 27.9272,127.446 27.9272,126.279 25.5,125.5C 25.1193,124.069 24.1193,123.236 22.5,123C 23.9047,121.731 25.5714,121.231 27.5,121.5C 27.6495,120.448 27.4828,119.448 27,118.5C 20.9202,116.422 21.0868,115.255 27.5,115C 27.0426,114.586 26.7093,114.086 26.5,113.5C 24.3671,113.419 22.3671,112.919 20.5,112C 22.0762,111.56 23.4096,110.727 24.5,109.5C 26.1227,110.491 27.1227,109.824 27.5,107.5C 23.7259,104.775 24.0593,102.275 28.5,100C 27.1667,98.6667 25.8333,97.3333 24.5,96C 26.9166,94.3268 26.9166,92.4935 24.5,90.5C 25.3128,89.1861 26.3128,88.0195 27.5,87C 25.2915,86.0644 23.9582,84.3977 23.5,82C 26.4326,80.7291 29.0993,79.0624 31.5,77C 30.8742,76.2496 30.3742,75.4162 30,74.5C 28.8403,76.797 27.8403,76.4637 27,73.5C 26.0164,75.7947 25.1831,75.4614 24.5,72.5C 26.012,71.1375 27.512,70.8042 29,71.5C 30.6162,69.2867 31.7828,66.9534 32.5,64.5 Z"/></g>
<g><path style="opacity:1" fill="#f1caca" d="M 120.5,131.5 C 119.198,133.822 117.198,135.155 114.5,135.5C 114.5,135.167 114.5,134.833 114.5,134.5C 116.456,133.508 118.456,132.508 120.5,131.5 Z"/></g>
<g><path style="opacity:1" fill="#d68890" d="M 114.5,134.5 C 114.5,134.833 114.5,135.167 114.5,135.5C 111.031,136.7 107.698,136.7 104.5,135.5C 107.881,135.54 111.214,135.207 114.5,134.5 Z"/></g>
<g><path style="opacity:1" fill="#e8cbd7" d="M 216.5,62.5 C 217.498,98.9962 217.832,135.663 217.5,172.5C 217.167,172.5 216.833,172.5 216.5,172.5C 215.239,135.829 215.239,99.1618 216.5,62.5 Z"/></g>
<g><path style="opacity:1" fill="#b45c72" d="M 56.5,114.5 C 55.9266,124.31 56.76,133.977 59,143.5C 59.6429,145.93 61.1429,147.597 63.5,148.5C 63.1543,149.696 62.6543,149.696 62,148.5C 61.5172,149.448 61.3505,150.448 61.5,151.5C 59.1382,147.901 57.3048,143.901 56,139.5C 55.1768,130.99 55.3434,122.656 56.5,114.5 Z"/></g>
<g><path style="opacity:1" fill="#cd7f92" d="M 192.5,137.5 C 194.129,139.858 195.295,142.524 196,145.5C 196.821,152.346 196.654,159.013 195.5,165.5C 196.175,155.923 195.175,146.589 192.5,137.5 Z"/></g>
<g><path style="opacity:1" fill="#a84c6d" d="M 34.5,62.5 C 34.3333,99.1682 34.5,135.835 35,172.5C 35.773,176.532 36.6063,180.532 37.5,184.5C 36.8501,184.196 36.1835,183.863 35.5,183.5C 34.6207,179.846 33.7873,176.179 33,172.5C 32.8297,138.262 32.3297,104.095 31.5,70C 32.4061,68.3005 32.7394,66.4672 32.5,64.5C 32.8333,63.5 33.5,62.8333 34.5,62.5 Z"/></g>
<g><path style="opacity:1" fill="#b44158" d="M 94.5,73.5 C 94.0844,75.7525 92.751,77.2525 90.5,78C 90.8333,78.3333 91.1667,78.6667 91.5,79C 88.3937,81.9038 85.2271,84.7372 82,87.5C 80.2739,86.4238 78.4406,86.2571 76.5,87C 75.245,89.4603 73.245,90.627 70.5,90.5C 72.314,94.3699 70.9807,96.0366 66.5,95.5C 66.6621,97.5273 66.4955,99.5273 66,101.5C 64.9887,102.337 63.8221,102.67 62.5,102.5C 62.7965,112.209 63.6299,112.542 65,103.5C 67.2552,108.371 68.4218,108.371 68.5,103.5C 69.8734,103.657 71.2068,103.49 72.5,103C 73.8333,102.333 73.8333,101.667 72.5,101C 74.7339,100.031 76.7339,98.6978 78.5,97C 78.1667,96.6667 77.8333,96.3333 77.5,96C 78.7155,93.9045 79.5488,94.0712 80,96.5C 81,95.1667 82,93.8333 83,92.5C 84.4579,93.7468 85.9579,93.7468 87.5,92.5C 88.4095,94.3747 89.7428,95.708 91.5,96.5C 76.8225,106.529 71.6559,120.195 76,137.5C 78.9367,146.425 84.4367,153.092 92.5,157.5C 92.5,157.833 92.5,158.167 92.5,158.5C 94.2688,160.397 96.6021,161.564 99.5,162C 104.833,162.667 110.167,162.667 115.5,162C 116.416,161.722 117.082,161.222 117.5,160.5C 121.524,159.962 125.524,159.295 129.5,158.5C 129.279,159.735 128.612,160.735 127.5,161.5C 124.827,162.501 122.493,164.001 120.5,166C 117.482,164.947 115.148,165.947 113.5,169C 112.551,169.617 111.718,169.451 111,168.5C 110.585,170.291 109.585,171.624 108,172.5C 107.517,171.552 107.351,170.552 107.5,169.5C 105.08,169.292 102.747,169.626 100.5,170.5C 98.9309,169.286 98.0976,167.619 98,165.5C 95.3966,166.99 92.3966,168.656 89,170.5C 87.8668,168.789 86.3668,168.289 84.5,169C 84.8333,169.333 85.1667,169.667 85.5,170C 84.1416,170.934 82.8083,171.768 81.5,172.5C 81.1667,172.5 80.8333,172.5 80.5,172.5C 71.7212,167.721 65.3879,160.721 61.5,151.5C 61.3505,150.448 61.5172,149.448 62,148.5C 62.6543,149.696 63.1543,149.696 63.5,148.5C 61.1429,147.597 59.6429,145.93 59,143.5C 56.76,133.977 55.9266,124.31 56.5,114.5C 57.2983,109.939 58.7983,105.606 61,101.5C 69.2785,88.7223 80.4452,79.389 94.5,73.5 Z"/></g>
<g><path style="opacity:1" fill="#ce8a9d" d="M 146.5,149.5 C 144.585,149.216 142.919,149.549 141.5,150.5C 140.167,150.5 138.833,150.5 137.5,150.5C 140.373,148.518 143.373,148.185 146.5,149.5 Z"/></g>
<g><path style="opacity:1" fill="#d6adae" d="M 147.5,149.5 C 149.5,149.5 150.5,150.5 150.5,152.5C 149.167,151.833 148.167,150.833 147.5,149.5 Z"/></g>
<g><path style="opacity:1" fill="#b7576d" d="M 134.5,152.5 C 132.886,154.456 131.219,156.456 129.5,158.5C 125.524,159.295 121.524,159.962 117.5,160.5C 123.117,157.878 128.783,155.211 134.5,152.5 Z"/></g>
<g><path style="opacity:1" fill="#e2c0c5" d="M 92.5,158.5 C 92.5,158.167 92.5,157.833 92.5,157.5C 95.491,157.166 97.8243,158.166 99.5,160.5C 97.1667,159.833 94.8333,159.167 92.5,158.5 Z"/></g>
<g><path style="opacity:1" fill="#bb3d5c" d="M 137.5,150.5 C 138.833,150.5 140.167,150.5 141.5,150.5C 149.419,151.146 152.419,155.479 150.5,163.5C 149.71,164.794 148.71,165.961 147.5,167C 139.833,171.668 131.833,175.501 123.5,178.5C 113.169,179.792 102.835,179.792 92.5,178.5C 91.8333,178.5 91.5,178.167 91.5,177.5C 88.54,175.244 85.2066,173.578 81.5,172.5C 82.8083,171.768 84.1416,170.934 85.5,170C 85.1667,169.667 84.8333,169.333 84.5,169C 86.3668,168.289 87.8668,168.789 89,170.5C 92.3966,168.656 95.3966,166.99 98,165.5C 98.0976,167.619 98.9309,169.286 100.5,170.5C 102.747,169.626 105.08,169.292 107.5,169.5C 107.351,170.552 107.517,171.552 108,172.5C 109.585,171.624 110.585,170.291 111,168.5C 111.718,169.451 112.551,169.617 113.5,169C 115.148,165.947 117.482,164.947 120.5,166C 122.493,164.001 124.827,162.501 127.5,161.5C 128.612,160.735 129.279,159.735 129.5,158.5C 131.219,156.456 132.886,154.456 134.5,152.5C 134.973,151.094 135.973,150.427 137.5,150.5 Z"/></g>
<g><path style="opacity:1" fill="#d4adb0" d="M 175.5,146.5 C 177.03,149.695 177.696,153.195 177.5,157C 177.497,159.69 177.164,162.19 176.5,164.5C 176.64,158.464 176.307,152.464 175.5,146.5 Z"/></g>
<g><path style="opacity:1" fill="#b95069" d="M 141.5,150.5 C 142.919,149.549 144.585,149.216 146.5,149.5C 146.833,149.5 147.167,149.5 147.5,149.5C 148.167,150.833 149.167,151.833 150.5,152.5C 153.065,156.199 153.065,159.865 150.5,163.5C 152.419,155.479 149.419,151.146 141.5,150.5 Z"/></g>
<g><path style="opacity:1" fill="#a63d4f" d="M 250.5,160.5 C 250.5,206.5 250.5,252.5 250.5,298.5C 187.167,298.5 123.833,298.5 60.5,298.5C 58.5486,296.52 57.0486,294.187 56,291.5C 53.8913,292.035 53.3913,293.035 54.5,294.5C 54,294.833 53.5,295.167 53,295.5C 51.3488,294.258 49.5155,293.424 47.5,293C 48.5634,291.812 49.8967,291.312 51.5,291.5C 51.6399,289.876 50.9733,288.71 49.5,288C 50.448,287.517 51.448,287.351 52.5,287.5C 52.5,288.5 52.5,289.5 52.5,290.5C 53.5,290.5 54.5,290.5 55.5,290.5C 56.0522,288.669 56.0522,287.003 55.5,285.5C 52.006,286.312 49.3394,284.979 47.5,281.5C 48.2739,280.289 49.1072,280.289 50,281.5C 50.5623,277.7 49.5623,277.033 47,279.5C 45.6667,278.833 44.3333,278.167 43,277.5C 42.3086,279.891 41.3086,279.891 40,277.5C 39.5298,279.774 38.5298,281.774 37,283.5C 37.9838,280.788 38.4838,278.122 38.5,275.5C 39.4345,274.432 39.7678,273.099 39.5,271.5C 41.0603,271.519 42.5603,271.852 44,272.5C 45.1681,271.491 46.3348,270.491 47.5,269.5C 48.5937,270.868 48.2603,272.035 46.5,273C 48.5206,273.513 50.0206,274.68 51,276.5C 51.4396,274.924 52.273,273.59 53.5,272.5C 50.4028,271.806 50.0695,270.806 52.5,269.5C 53.6721,269.919 54.6721,270.585 55.5,271.5C 54.5153,273.098 54.3486,274.765 55,276.5C 56.9076,273.668 57.741,274.001 57.5,277.5C 58.675,277.719 59.675,277.386 60.5,276.5C 59.7515,274.668 58.7515,273.001 57.5,271.5C 57.8333,271.167 58.1667,270.833 58.5,270.5C 59.9626,270.632 61.4626,270.965 63,271.5C 63.9454,271.095 64.6121,270.428 65,269.5C 65.3076,270.308 65.8076,270.975 66.5,271.5C 67.8924,270.395 69.059,269.061 70,267.5C 71.1544,269.957 72.4877,269.957 74,267.5C 77.461,270.632 77.961,273.965 75.5,277.5C 77.1992,277.66 78.8659,277.494 80.5,277C 79.6005,274.808 78.6005,272.642 77.5,270.5C 78.868,269.406 80.0347,269.74 81,271.5C 81.4828,270.552 81.6495,269.552 81.5,268.5C 80.448,268.649 79.448,268.483 78.5,268C 79.6667,267.5 80.5,266.667 81,265.5C 82.7878,267.004 83.2878,268.671 82.5,270.5C 83.4988,274.361 84.6655,274.361 86,270.5C 86.414,270.957 86.914,271.291 87.5,271.5C 90.1886,270.443 92.6886,269.11 95,267.5C 95.3333,268.167 95.6667,268.833 96,269.5C 97.1827,268.269 98.3493,268.269 99.5,269.5C 98.675,270.386 97.675,270.719 96.5,270.5C 96.5,271.5 96.5,272.5 96.5,273.5C 91.342,274.484 91.342,275.317 96.5,276C 95.062,276.219 93.7287,276.719 92.5,277.5C 93.5821,277.749 94.9154,277.915 96.5,278C 95.1667,279.333 95.1667,280.667 96.5,282C 95.8333,282.333 95.1667,282.667 94.5,283C 97.4695,286.806 99.1362,286.306 99.5,281.5C 96.6228,279.087 96.9561,277.253 100.5,276C 100.167,275.667 99.8333,275.333 99.5,275C 100.744,274.544 101.577,275.044 102,276.5C 102.965,274.74 104.132,274.406 105.5,275.5C 104.018,277.483 102.351,279.316 100.5,281C 101.981,281.98 103.315,283.147 104.5,284.5C 102.353,287.332 102.353,289.999 104.5,292.5C 102.307,294.382 102.973,294.882 106.5,294C 105.788,290.944 105.454,287.777 105.5,284.5C 107.984,283.106 107.984,281.606 105.5,280C 107.617,278.687 109.117,276.853 110,274.5C 112.061,275.613 113.061,276.947 113,278.5C 114.635,278.122 116.135,277.456 117.5,276.5C 116.418,276.251 115.085,276.085 113.5,276C 115.219,274.943 117.053,274.11 119,273.5C 120.685,275.988 122.019,275.655 123,272.5C 123.333,273.5 123.667,274.5 124,275.5C 125.784,271.011 128.284,270.511 131.5,274C 130.833,274.333 130.167,274.667 129.5,275C 130.227,276.399 130.727,277.899 131,279.5C 131.483,278.552 131.649,277.552 131.5,276.5C 134.099,276.549 136.266,277.549 138,279.5C 138.492,278.451 138.326,277.451 137.5,276.5C 138.025,275.808 138.692,275.308 139.5,275C 137.189,275.155 134.856,275.155 132.5,275C 133.428,274.612 134.095,273.945 134.5,273C 133.19,267.307 134.023,267.14 137,272.5C 138.314,271.687 139.481,270.687 140.5,269.5C 141.148,271.149 142.148,272.482 143.5,273.5C 145.863,272.233 147.697,269.899 149,266.5C 152.357,267.742 152.19,268.576 148.5,269C 149.416,269.374 150.25,269.874 151,270.5C 153.147,269.887 155.314,269.221 157.5,268.5C 154.864,266.936 155.031,265.603 158,264.5C 159.099,267.044 160.265,267.044 161.5,264.5C 160.833,264.167 160.167,263.833 159.5,263.5C 159.833,262.5 160.5,261.833 161.5,261.5C 162.425,262.641 163.259,262.641 164,261.5C 164.915,262.328 165.581,263.328 166,264.5C 166.684,263.216 166.517,262.049 165.5,261C 166.667,260.5 167.5,259.667 168,258.5C 168.414,258.957 168.914,259.291 169.5,259.5C 170.731,258.349 170.731,257.183 169.5,256C 170.667,255.5 171.5,254.667 172,253.5C 173.912,255.994 175.746,255.827 177.5,253C 176.289,252.107 176.289,251.274 177.5,250.5C 178.451,251.326 179.451,251.492 180.5,251C 179.549,250.282 179.383,249.449 180,248.5C 181,250.167 182,251.833 183,253.5C 183.346,251.782 183.846,250.115 184.5,248.5C 188.125,246.375 191.291,243.709 194,240.5C 194.249,241.624 194.749,242.624 195.5,243.5C 195.833,243.167 196.167,242.833 196.5,242.5C 192.269,235.933 192.769,235.267 198,240.5C 199.236,238.462 201.069,237.295 203.5,237C 201.842,236.275 201.342,235.108 202,233.5C 202.414,233.957 202.914,234.291 203.5,234.5C 203.736,233.753 204.07,232.92 204.5,232C 206.631,231.457 208.631,230.624 210.5,229.5C 210.291,228.914 209.957,228.414 209.5,228C 210.833,227.333 212.167,226.667 213.5,226C 212.833,225.667 212.167,225.333 211.5,225C 212.191,223.933 212.691,222.766 213,221.5C 214.241,223.421 215.741,223.754 217.5,222.5C 214.031,219.332 215.031,217.498 220.5,217C 219.366,215.984 219.699,215.317 221.5,215C 219.109,214.309 219.109,213.309 221.5,212C 220.549,211.282 220.383,210.449 221,209.5C 222.117,209.335 223.284,209.002 224.5,208.5C 226.001,203.464 227.834,203.464 230,208.5C 229.31,206.344 229.477,204.177 230.5,202C 230,200.5 229.5,199 229,197.5C 228.346,198.696 227.846,198.696 227.5,197.5C 228.59,195.997 229.757,195.664 231,196.5C 231.133,193.475 232.133,190.808 234,188.5C 234.333,189.833 234.667,191.167 235,192.5C 235.483,191.552 235.649,190.552 235.5,189.5C 236.5,189.5 237.5,189.5 238.5,189.5C 239.052,187.669 239.052,186.003 238.5,184.5C 239.5,183.667 240.5,182.833 241.5,182C 236.14,181.217 234.807,178.717 237.5,174.5C 237.736,175.247 238.07,176.08 238.5,177C 239.332,177.688 239.998,177.521 240.5,176.5C 239.167,175.5 239.167,174.5 240.5,173.5C 239.624,172.749 238.624,172.249 237.5,172C 238.479,170.221 238.146,168.555 236.5,167C 240.116,166.653 240.783,165.486 238.5,163.5C 238.846,162.304 239.346,162.304 240,163.5C 240.748,161.668 241.748,160.001 243,158.5C 243.667,159.167 244.333,159.833 245,160.5C 245.718,159.549 246.551,159.383 247.5,160C 243.689,162.753 244.355,163.753 249.5,163C 248.434,161.841 248.767,161.008 250.5,160.5 Z"/></g>
<g><path style="opacity:1" fill="#b13d57" d="M 151.5,105.5 C 170.686,109.242 184.353,119.909 192.5,137.5C 195.175,146.589 196.175,155.923 195.5,165.5C 194.158,178.212 188.824,188.879 179.5,197.5C 178.179,195.186 178.179,192.853 179.5,190.5C 181.341,188.489 183.008,186.322 184.5,184C 183.833,182.333 183.167,180.667 182.5,179C 183.651,177.177 184.818,175.344 186,173.5C 186.667,171.5 186.667,169.5 186,167.5C 183.424,169.528 182.924,171.695 184.5,174C 184,174.5 183.5,175 183,175.5C 183.035,171.755 182.035,171.088 180,173.5C 179.667,173.167 179.333,172.833 179,172.5C 175.204,174.741 172.871,178.074 172,182.5C 170.855,181.316 169.688,181.316 168.5,182.5C 170.17,179.825 171.836,177.159 173.5,174.5C 175.554,171.992 176.554,168.992 176.5,165.5C 176.5,165.167 176.5,164.833 176.5,164.5C 177.164,162.19 177.497,159.69 177.5,157C 177.696,153.195 177.03,149.695 175.5,146.5C 172.982,140.977 169.648,135.977 165.5,131.5C 167.117,132.038 168.784,132.371 170.5,132.5C 170.281,131.325 170.614,130.325 171.5,129.5C 173.302,130.986 175.302,131.986 177.5,132.5C 177.421,131.07 177.754,129.736 178.5,128.5C 177.711,126.512 176.545,126.179 175,127.5C 174.333,126.167 174.333,124.833 175,123.5C 176.099,126.044 177.265,126.044 178.5,123.5C 177.088,122.194 175.421,121.36 173.5,121C 174.833,120.333 175.833,119.333 176.5,118C 171.154,113.828 165.154,110.994 158.5,109.5C 156.865,109.878 155.365,110.544 154,111.5C 151.708,110.069 149.208,109.236 146.5,109C 148.256,108.798 149.922,108.298 151.5,107.5C 143.102,106.212 134.769,106.546 126.5,108.5C 127.5,107.833 128.5,107.167 129.5,106.5C 129.833,106.5 130.167,106.5 130.5,106.5C 137.465,105.659 144.465,105.326 151.5,105.5 Z"/></g>
<g><path style="opacity:1" fill="#ac5063" d="M 92.5,158.5 C 94.8333,159.167 97.1667,159.833 99.5,160.5C 105.448,161.687 111.448,161.687 117.5,160.5C 117.082,161.222 116.416,161.722 115.5,162C 110.167,162.667 104.833,162.667 99.5,162C 96.6021,161.564 94.2688,160.397 92.5,158.5 Z"/></g>
<g><path style="opacity:1" fill="#c5667c" d="M 80.5,172.5 C 80.8333,172.5 81.1667,172.5 81.5,172.5C 85.2066,173.578 88.54,175.244 91.5,177.5C 87.164,177.163 83.4974,175.496 80.5,172.5 Z"/></g>
<g><path style="opacity:1" fill="#cd9097" d="M 176.5,165.5 C 176.554,168.992 175.554,171.992 173.5,174.5C 174.054,171.254 175.054,168.254 176.5,165.5 Z"/></g>
<g><path style="opacity:1" fill="#a33b4e" d="M 25.5,125.5 C 27.9272,126.279 27.9272,127.446 25.5,129C 28.6822,132.097 28.0155,133.763 23.5,134C 24.8312,135.659 26.1646,137.326 27.5,139C 26.2933,141.983 26.2933,144.983 27.5,148C 27.5267,150.64 26.1934,151.973 23.5,152C 27.8661,153.762 28.5327,156.429 25.5,160C 28.0959,161.797 27.7626,163.131 24.5,164C 26.6051,165.193 28.2718,166.86 29.5,169C 28.572,169.388 27.9054,170.055 27.5,171C 29.5291,173.281 29.8624,175.781 28.5,178.5C 29.3966,178.669 30.3966,179.002 31.5,179.5C 30.9462,185.841 32.9462,191.341 37.5,196C 36.6919,196.308 36.0253,196.808 35.5,197.5C 37.8699,200.052 39.2033,203.052 39.5,206.5C 41.1992,206.34 42.8659,206.506 44.5,207C 43.4829,208.049 43.3162,209.216 44,210.5C 45.4866,211.155 46.6533,212.155 47.5,213.5C 46.1667,214.5 46.1667,215.5 47.5,216.5C 46.624,217.251 45.624,217.751 44.5,218C 45.8333,220 45.8333,222 44.5,224C 46.3671,224.919 48.3671,225.419 50.5,225.5C 51.2824,227.329 50.6157,228.829 48.5,230C 51.2006,229.969 52.7006,228.469 53,225.5C 53.4186,226.672 54.0853,227.672 55,228.5C 60.4437,226.595 62.6104,222.929 61.5,217.5C 62.8149,218.476 64.1482,219.476 65.5,220.5C 57.1925,232.137 48.5259,243.47 39.5,254.5C 37.2729,255.401 36.2729,257.067 36.5,259.5C 38.6854,259.296 40.6854,258.63 42.5,257.5C 42.0629,259.074 41.0629,260.241 39.5,261C 39.8333,261.333 40.1667,261.667 40.5,262C 39.7734,263.399 39.2734,264.899 39,266.5C 37.0539,266.588 35.0539,266.921 33,267.5C 29.6942,269.461 29.6942,271.461 33,273.5C 33.3333,273.167 33.6667,272.833 34,272.5C 36.0263,272.915 37.5263,273.915 38.5,275.5C 38.4838,278.122 37.9838,280.788 37,283.5C 38.5298,281.774 39.5298,279.774 40,277.5C 41.3086,279.891 42.3086,279.891 43,277.5C 44.3333,278.167 45.6667,278.833 47,279.5C 49.5623,277.033 50.5623,277.7 50,281.5C 49.1072,280.289 48.2739,280.289 47.5,281.5C 49.3394,284.979 52.006,286.312 55.5,285.5C 56.0522,287.003 56.0522,288.669 55.5,290.5C 54.5,290.5 53.5,290.5 52.5,290.5C 52.5,289.5 52.5,288.5 52.5,287.5C 51.448,287.351 50.448,287.517 49.5,288C 50.9733,288.71 51.6399,289.876 51.5,291.5C 49.8967,291.312 48.5634,291.812 47.5,293C 49.5155,293.424 51.3488,294.258 53,295.5C 53.5,295.167 54,294.833 54.5,294.5C 53.3913,293.035 53.8913,292.035 56,291.5C 57.0486,294.187 58.5486,296.52 60.5,298.5C 40.1667,298.5 19.8333,298.5 -0.5,298.5C -0.5,237.167 -0.5,175.833 -0.5,114.5C 1.50837,115.301 2.00837,116.634 1,118.5C 2.69946,117.594 4.5328,117.261 6.5,117.5C 5.26472,115.227 5.59806,113.394 7.5,112C 6.28882,111.107 6.28882,110.274 7.5,109.5C 8.79892,110.09 9.63225,111.09 10,112.5C 10.3333,114.833 10.6667,117.167 11,119.5C 11.3333,119.167 11.6667,118.833 12,118.5C 12.7724,119.849 13.9391,120.682 15.5,121C 13.5,121.333 11.5,121.667 9.5,122C 10.3366,123.011 10.67,124.178 10.5,125.5C 12.451,125.773 13.951,125.107 15,123.5C 15.9277,125.335 17.0944,125.668 18.5,124.5C 18.7501,126.345 19.5834,128.345 21,130.5C 22.0674,129.809 23.2341,129.309 24.5,129C 20.6035,127.214 20.9369,126.047 25.5,125.5 Z"/></g>
<g><path style="opacity:1" fill="#c56981" d="M 92.5,178.5 C 102.835,179.792 113.169,179.792 123.5,178.5C 123.5,179.167 123.167,179.5 122.5,179.5C 114.862,180.313 107.196,180.646 99.5,180.5C 96.9327,180.279 94.5994,179.612 92.5,178.5 Z"/></g>
<g><path style="opacity:1" fill="#f1c8cc" d="M 122.5,179.5 C 118.272,181.025 113.772,181.692 109,181.5C 105.648,181.498 102.482,181.165 99.5,180.5C 107.196,180.646 114.862,180.313 122.5,179.5 Z"/></g>
<g><path style="opacity:1" fill="#af4963" d="M 216.5,172.5 C 216.833,172.5 217.167,172.5 217.5,172.5C 217.334,176.514 217.501,180.514 218,184.5C 218.5,185 219,185.5 219.5,186C 215.393,187.266 213.226,190.1 213,194.5C 211.6,195.748 210.1,196.748 208.5,197.5C 212.371,189.554 215.038,181.22 216.5,172.5 Z"/></g>
<g><path style="opacity:1" fill="#a93f53" d="M 250.5,73.5 C 250.5,102.5 250.5,131.5 250.5,160.5C 248.767,161.008 248.434,161.841 249.5,163C 244.355,163.753 243.689,162.753 247.5,160C 246.551,159.383 245.718,159.549 245,160.5C 244.333,159.833 243.667,159.167 243,158.5C 241.748,160.001 240.748,161.668 240,163.5C 239.346,162.304 238.846,162.304 238.5,163.5C 240.783,165.486 240.116,166.653 236.5,167C 238.146,168.555 238.479,170.221 237.5,172C 238.624,172.249 239.624,172.749 240.5,173.5C 239.167,174.5 239.167,175.5 240.5,176.5C 239.998,177.521 239.332,177.688 238.5,177C 238.07,176.08 237.736,175.247 237.5,174.5C 234.807,178.717 236.14,181.217 241.5,182C 240.5,182.833 239.5,183.667 238.5,184.5C 239.052,186.003 239.052,187.669 238.5,189.5C 237.5,189.5 236.5,189.5 235.5,189.5C 235.649,190.552 235.483,191.552 235,192.5C 234.667,191.167 234.333,189.833 234,188.5C 232.133,190.808 231.133,193.475 231,196.5C 229.757,195.664 228.59,195.997 227.5,197.5C 227.846,198.696 228.346,198.696 229,197.5C 229.5,199 230,200.5 230.5,202C 229.477,204.177 229.31,206.344 230,208.5C 227.834,203.464 226.001,203.464 224.5,208.5C 223.284,209.002 222.117,209.335 221,209.5C 220.383,210.449 220.549,211.282 221.5,212C 219.109,213.309 219.109,214.309 221.5,215C 219.699,215.317 219.366,215.984 220.5,217C 215.031,217.498 214.031,219.332 217.5,222.5C 215.741,223.754 214.241,223.421 213,221.5C 212.691,222.766 212.191,223.933 211.5,225C 212.167,225.333 212.833,225.667 213.5,226C 212.167,226.667 210.833,227.333 209.5,228C 209.957,228.414 210.291,228.914 210.5,229.5C 208.631,230.624 206.631,231.457 204.5,232C 204.07,232.92 203.736,233.753 203.5,234.5C 202.914,234.291 202.414,233.957 202,233.5C 201.342,235.108 201.842,236.275 203.5,237C 201.069,237.295 199.236,238.462 198,240.5C 192.769,235.267 192.269,235.933 196.5,242.5C 196.167,242.833 195.833,243.167 195.5,243.5C 194.749,242.624 194.249,241.624 194,240.5C 191.291,243.709 188.125,246.375 184.5,248.5C 183.846,250.115 183.346,251.782 183,253.5C 182,251.833 181,250.167 180,248.5C 179.383,249.449 179.549,250.282 180.5,251C 179.451,251.492 178.451,251.326 177.5,250.5C 176.289,251.274 176.289,252.107 177.5,253C 175.746,255.827 173.912,255.994 172,253.5C 171.5,254.667 170.667,255.5 169.5,256C 170.731,257.183 170.731,258.349 169.5,259.5C 168.914,259.291 168.414,258.957 168,258.5C 167.5,259.667 166.667,260.5 165.5,261C 166.517,262.049 166.684,263.216 166,264.5C 165.581,263.328 164.915,262.328 164,261.5C 163.259,262.641 162.425,262.641 161.5,261.5C 160.5,261.833 159.833,262.5 159.5,263.5C 160.167,263.833 160.833,264.167 161.5,264.5C 160.265,267.044 159.099,267.044 158,264.5C 155.031,265.603 154.864,266.936 157.5,268.5C 155.314,269.221 153.147,269.887 151,270.5C 150.25,269.874 149.416,269.374 148.5,269C 152.19,268.576 152.357,267.742 149,266.5C 147.697,269.899 145.863,272.233 143.5,273.5C 142.148,272.482 141.148,271.149 140.5,269.5C 139.481,270.687 138.314,271.687 137,272.5C 134.023,267.14 133.19,267.307 134.5,273C 134.095,273.945 133.428,274.612 132.5,275C 134.856,275.155 137.189,275.155 139.5,275C 138.692,275.308 138.025,275.808 137.5,276.5C 138.326,277.451 138.492,278.451 138,279.5C 136.266,277.549 134.099,276.549 131.5,276.5C 131.649,277.552 131.483,278.552 131,279.5C 130.727,277.899 130.227,276.399 129.5,275C 130.167,274.667 130.833,274.333 131.5,274C 128.284,270.511 125.784,271.011 124,275.5C 123.667,274.5 123.333,273.5 123,272.5C 122.019,275.655 120.685,275.988 119,273.5C 117.053,274.11 115.219,274.943 113.5,276C 115.085,276.085 116.418,276.251 117.5,276.5C 116.135,277.456 114.635,278.122 113,278.5C 113.061,276.947 112.061,275.613 110,274.5C 109.117,276.853 107.617,278.687 105.5,280C 107.984,281.606 107.984,283.106 105.5,284.5C 105.454,287.777 105.788,290.944 106.5,294C 102.973,294.882 102.307,294.382 104.5,292.5C 102.353,289.999 102.353,287.332 104.5,284.5C 103.315,283.147 101.981,281.98 100.5,281C 102.351,279.316 104.018,277.483 105.5,275.5C 104.132,274.406 102.965,274.74 102,276.5C 101.577,275.044 100.744,274.544 99.5,275C 99.8333,275.333 100.167,275.667 100.5,276C 96.9561,277.253 96.6228,279.087 99.5,281.5C 99.1362,286.306 97.4695,286.806 94.5,283C 95.1667,282.667 95.8333,282.333 96.5,282C 95.1667,280.667 95.1667,279.333 96.5,278C 94.9154,277.915 93.5821,277.749 92.5,277.5C 93.7287,276.719 95.062,276.219 96.5,276C 91.342,275.317 91.342,274.484 96.5,273.5C 96.5,272.5 96.5,271.5 96.5,270.5C 97.675,270.719 98.675,270.386 99.5,269.5C 98.3493,268.269 97.1827,268.269 96,269.5C 95.6667,268.833 95.3333,268.167 95,267.5C 92.6886,269.11 90.1886,270.443 87.5,271.5C 86.914,271.291 86.414,270.957 86,270.5C 84.6655,274.361 83.4988,274.361 82.5,270.5C 83.2878,268.671 82.7878,267.004 81,265.5C 80.5,266.667 79.6667,267.5 78.5,268C 79.448,268.483 80.448,268.649 81.5,268.5C 81.6495,269.552 81.4828,270.552 81,271.5C 80.0347,269.74 78.868,269.406 77.5,270.5C 78.6005,272.642 79.6005,274.808 80.5,277C 78.8659,277.494 77.1992,277.66 75.5,277.5C 77.961,273.965 77.461,270.632 74,267.5C 72.4877,269.957 71.1544,269.957 70,267.5C 69.059,269.061 67.8924,270.395 66.5,271.5C 65.8076,270.975 65.3076,270.308 65,269.5C 64.6121,270.428 63.9454,271.095 63,271.5C 61.4626,270.965 59.9626,270.632 58.5,270.5C 58.1667,270.833 57.8333,271.167 57.5,271.5C 58.7515,273.001 59.7515,274.668 60.5,276.5C 59.675,277.386 58.675,277.719 57.5,277.5C 57.741,274.001 56.9076,273.668 55,276.5C 54.3486,274.765 54.5153,273.098 55.5,271.5C 54.6721,270.585 53.6721,269.919 52.5,269.5C 50.0695,270.806 50.4028,271.806 53.5,272.5C 52.273,273.59 51.4396,274.924 51,276.5C 50.0206,274.68 48.5206,273.513 46.5,273C 48.2603,272.035 48.5937,270.868 47.5,269.5C 46.3348,270.491 45.1681,271.491 44,272.5C 42.5603,271.852 41.0603,271.519 39.5,271.5C 39.7678,273.099 39.4345,274.432 38.5,275.5C 37.5263,273.915 36.0263,272.915 34,272.5C 33.6667,272.833 33.3333,273.167 33,273.5C 29.6942,271.461 29.6942,269.461 33,267.5C 35.0539,266.921 37.0539,266.588 39,266.5C 39.2734,264.899 39.7734,263.399 40.5,262C 40.1667,261.667 39.8333,261.333 39.5,261C 41.0629,260.241 42.0629,259.074 42.5,257.5C 44.6547,257.628 46.6547,257.128 48.5,256C 52.1955,253.49 55.8621,250.99 59.5,248.5C 59.6107,249.117 59.944,249.617 60.5,250C 59.376,250.249 58.376,250.749 57.5,251.5C 59.1388,254.226 59.9722,256.893 60,259.5C 60.4186,258.328 61.0853,257.328 62,256.5C 63.545,256.366 65.2117,256.7 67,257.5C 68.739,255.108 71.0724,253.441 74,252.5C 74.3333,253.5 74.6667,254.5 75,255.5C 76.1096,253.963 77.6096,253.297 79.5,253.5C 79.3505,252.448 79.5172,251.448 80,250.5C 80.7724,251.849 81.9391,252.682 83.5,253C 82.3533,254.281 82.6866,254.614 84.5,254C 84.8699,251.192 86.3699,248.692 89,246.5C 89.3742,247.416 89.8742,248.25 90.5,249C 92.1012,249.273 93.6012,249.773 95,250.5C 95.414,250.043 95.914,249.709 96.5,249.5C 96.9396,248.302 97.273,247.135 97.5,246C 95.7888,244.867 95.2888,243.367 96,241.5C 96.6259,243.991 97.4593,243.991 98.5,241.5C 100.081,244.893 102.747,246.227 106.5,245.5C 109.785,245.928 112.785,246.928 115.5,248.5C 113.612,249.275 111.612,249.275 109.5,248.5C 109.5,249.5 109.5,250.5 109.5,251.5C 105.136,251.665 104.636,252.998 108,255.5C 108.333,255.167 108.667,254.833 109,254.5C 110.098,255.967 111.598,256.801 113.5,257C 112.151,258.635 112.318,260.135 114,261.5C 113.383,259.905 113.716,258.572 115,257.5C 115.991,258.939 117.324,259.939 119,260.5C 119.957,258.291 121.124,258.457 122.5,261C 126.852,261.419 127.185,262.086 123.5,263C 126.534,263.66 129.367,263.16 132,261.5C 133.667,262.167 135.333,262.833 137,263.5C 138.035,259.661 140.201,257.661 143.5,257.5C 146.308,256.03 149.308,255.197 152.5,255C 156.191,250.495 160.857,248.662 166.5,249.5C 167.429,248.311 167.762,246.978 167.5,245.5C 169.824,245.338 171.491,244.172 172.5,242C 174.952,241.71 177.285,241.044 179.5,240C 180.833,239.333 180.833,238.667 179.5,238C 181.167,237.667 182.833,237.333 184.5,237C 190.387,232.938 196.387,229.105 202.5,225.5C 204.96,221.54 207.96,218.04 211.5,215C 211.043,214.586 210.709,214.086 210.5,213.5C 214.932,212.122 216.599,209.288 215.5,205C 217.125,204.147 217.458,203.147 216.5,202C 217.813,199.674 219.813,198.341 222.5,198C 221.542,196.853 221.875,195.853 223.5,195C 222.216,193.703 222.383,192.536 224,191.5C 225.044,192.623 225.71,193.956 226,195.5C 226.75,194.874 227.584,194.374 228.5,194C 227.692,193.692 227.025,193.192 226.5,192.5C 227.711,191.28 227.711,190.113 226.5,189C 227.5,188.667 228.5,188.333 229.5,188C 227.086,186.215 225.753,184.048 225.5,181.5C 226.145,180.354 226.978,179.354 228,178.5C 229.074,172.649 230.241,166.816 231.5,161C 231.245,159.674 230.578,158.674 229.5,158C 230.133,154.088 230.3,150.255 230,146.5C 228.842,146.002 228.009,145.169 227.5,144C 227.233,140.968 226.233,138.301 224.5,136C 225.167,135.667 225.833,135.333 226.5,135C 225.939,133.324 224.939,131.991 223.5,131C 224.624,130.751 225.624,130.251 226.5,129.5C 225.499,126.671 225.499,123.671 226.5,120.5C 227.5,120.5 228.5,120.5 229.5,120.5C 229.451,117.901 228.451,115.734 226.5,114C 231.365,113.361 231.698,111.695 227.5,109C 228.711,108.213 229.711,107.546 230.5,107C 229.763,104.201 228.93,104.034 228,106.5C 227.372,101.846 228.539,97.6789 231.5,94C 230.562,90.5774 230.229,86.9107 230.5,83C 230.439,81.2894 231.106,79.956 232.5,79C 230.939,78.059 229.605,76.8924 228.5,75.5C 229.648,72.3136 230.314,68.9803 230.5,65.5C 232.17,67.9246 234.17,68.0913 236.5,66C 235.044,65.5774 234.544,64.7441 235,63.5C 236.803,63.0945 238.636,63.5945 240.5,65C 241.747,66.4936 241.747,67.9936 240.5,69.5C 238.167,66.5 236.5,66.8333 235.5,70.5C 237.021,70.8797 238.687,71.0464 240.5,71C 240.957,71.414 241.291,71.914 241.5,72.5C 240.189,73.2575 239.689,74.2575 240,75.5C 241.716,76.5523 242.716,75.8856 243,73.5C 244,75.5 245,77.5 246,79.5C 246.684,78.2161 246.517,77.0495 245.5,76C 246.667,75.5 247.5,74.6667 248,73.5C 248.77,74.5981 249.603,74.5981 250.5,73.5 Z"/></g>
<g><path style="opacity:1" fill="#bb677a" d="M 168.5,182.5 C 167.104,184.748 165.437,186.914 163.5,189C 158.802,190.555 154.468,192.722 150.5,195.5C 149.167,195.833 147.833,196.167 146.5,196.5C 153.731,191.872 161.064,187.206 168.5,182.5 Z"/></g>
<g><path style="opacity:1" fill="#b3455d" d="M 150.5,195.5 C 150.119,196.931 149.119,197.764 147.5,198C 148.448,198.483 149.448,198.649 150.5,198.5C 150.5,199.833 150.5,201.167 150.5,202.5C 145.517,204.061 140.517,206.061 135.5,208.5C 134.808,207.975 134.308,207.308 134,206.5C 129.285,207.453 125.452,209.786 122.5,213.5C 120.955,214.452 119.288,214.785 117.5,214.5C 117.36,216.124 118.027,217.29 119.5,218C 117.939,218.318 116.772,219.151 116,220.5C 115.586,220.043 115.086,219.709 114.5,219.5C 113.071,222.817 111.238,223.15 109,220.5C 107.234,221.233 105.401,221.567 103.5,221.5C 117.472,212.613 131.805,204.28 146.5,196.5C 147.833,196.167 149.167,195.833 150.5,195.5 Z"/></g>
<g><path style="opacity:1" fill="#ad3c55" d="M 230.5,65.5 C 230.314,68.9803 229.648,72.3136 228.5,75.5C 229.605,76.8924 230.939,78.059 232.5,79C 231.106,79.956 230.439,81.2894 230.5,83C 230.229,86.9107 230.562,90.5774 231.5,94C 228.539,97.6789 227.372,101.846 228,106.5C 228.93,104.034 229.763,104.201 230.5,107C 229.711,107.546 228.711,108.213 227.5,109C 231.698,111.695 231.365,113.361 226.5,114C 228.451,115.734 229.451,117.901 229.5,120.5C 228.5,120.5 227.5,120.5 226.5,120.5C 225.499,123.671 225.499,126.671 226.5,129.5C 225.624,130.251 224.624,130.751 223.5,131C 224.939,131.991 225.939,133.324 226.5,135C 225.833,135.333 225.167,135.667 224.5,136C 226.233,138.301 227.233,140.968 227.5,144C 228.009,145.169 228.842,146.002 230,146.5C 230.3,150.255 230.133,154.088 229.5,158C 230.578,158.674 231.245,159.674 231.5,161C 230.241,166.816 229.074,172.649 228,178.5C 226.978,179.354 226.145,180.354 225.5,181.5C 225.753,184.048 227.086,186.215 229.5,188C 228.5,188.333 227.5,188.667 226.5,189C 227.711,190.113 227.711,191.28 226.5,192.5C 227.025,193.192 227.692,193.692 228.5,194C 227.584,194.374 226.75,194.874 226,195.5C 225.71,193.956 225.044,192.623 224,191.5C 222.383,192.536 222.216,193.703 223.5,195C 221.875,195.853 221.542,196.853 222.5,198C 219.813,198.341 217.813,199.674 216.5,202C 217.458,203.147 217.125,204.147 215.5,205C 216.599,209.288 214.932,212.122 210.5,213.5C 210.709,214.086 211.043,214.586 211.5,215C 207.96,218.04 204.96,221.54 202.5,225.5C 196.387,229.105 190.387,232.938 184.5,237C 182.833,237.333 181.167,237.667 179.5,238C 180.833,238.667 180.833,239.333 179.5,240C 177.285,241.044 174.952,241.71 172.5,242C 171.491,244.172 169.824,245.338 167.5,245.5C 167.762,246.978 167.429,248.311 166.5,249.5C 160.857,248.662 156.191,250.495 152.5,255C 149.308,255.197 146.308,256.03 143.5,257.5C 140.201,257.661 138.035,259.661 137,263.5C 135.333,262.833 133.667,262.167 132,261.5C 129.367,263.16 126.534,263.66 123.5,263C 127.185,262.086 126.852,261.419 122.5,261C 121.124,258.457 119.957,258.291 119,260.5C 117.324,259.939 115.991,258.939 115,257.5C 113.716,258.572 113.383,259.905 114,261.5C 112.318,260.135 112.151,258.635 113.5,257C 111.598,256.801 110.098,255.967 109,254.5C 108.667,254.833 108.333,255.167 108,255.5C 104.636,252.998 105.136,251.665 109.5,251.5C 109.5,250.5 109.5,249.5 109.5,248.5C 111.612,249.275 113.612,249.275 115.5,248.5C 115.833,248.5 116.167,248.5 116.5,248.5C 118.509,250.065 120.843,251.065 123.5,251.5C 131.763,251.768 139.763,249.768 147.5,245.5C 148.524,244.148 149.524,242.815 150.5,241.5C 155.892,238.139 161.558,235.139 167.5,232.5C 169.848,232.408 171.514,231.408 172.5,229.5C 179.434,224.689 186.434,219.856 193.5,215C 199.43,209.908 204.43,204.075 208.5,197.5C 210.1,196.748 211.6,195.748 213,194.5C 213.226,190.1 215.393,187.266 219.5,186C 219,185.5 218.5,185 218,184.5C 217.501,180.514 217.334,176.514 217.5,172.5C 217.832,135.663 217.498,98.9962 216.5,62.5C 212.2,61.061 207.867,59.7277 203.5,58.5C 208.005,57.6687 211.005,55.0021 212.5,50.5C 211.239,48.5466 210.073,46.5466 209,44.5C 206.083,45.7619 203.249,47.0952 200.5,48.5C 203.719,42.6087 208.052,37.6087 213.5,33.5C 216.39,31.8614 219.39,31.1947 222.5,31.5C 223.333,32.5 224.167,33.5 225,34.5C 226.299,34.0338 227.799,34.0338 229.5,34.5C 229.357,36.2624 229.691,37.9291 230.5,39.5C 230.154,40.6956 229.654,40.6956 229,39.5C 228.505,41.4727 228.338,43.4727 228.5,45.5C 227.5,45.5 226.5,45.5 225.5,45.5C 225.351,46.552 225.517,47.552 226,48.5C 226.718,47.5494 227.551,47.3828 228.5,48C 228.096,50.0697 228.096,52.2363 228.5,54.5C 228.201,56.8146 227.368,56.8146 226,54.5C 226.086,56.9434 227.419,58.6101 230,59.5C 230.495,61.4727 230.662,63.4727 230.5,65.5 Z"/></g>
<g><path style="opacity:1" fill="#b73956" d="M 179.5,197.5 C 176.725,200.605 173.392,202.938 169.5,204.5C 166.058,203.264 162.891,203.264 160,204.5C 159.529,206.246 158.862,207.913 158,209.5C 155.853,208.524 153.686,208.691 151.5,210C 150.663,211.011 150.33,212.178 150.5,213.5C 149.448,213.649 148.448,213.483 147.5,213C 148.711,212.107 148.711,211.274 147.5,210.5C 146.155,211.347 145.155,212.513 144.5,214C 141.213,214.616 138.379,216.116 136,218.5C 135.667,218.167 135.333,217.833 135,217.5C 131.491,219.827 128.324,222.493 125.5,225.5C 121.174,225.831 118.84,228.165 118.5,232.5C 114.826,233.233 111.159,233.899 107.5,234.5C 106.692,236.423 106.192,238.423 106,240.5C 105.705,235.983 104.038,235.65 101,239.5C 100.667,238.833 100.333,238.167 100,237.5C 97.3669,239.16 94.5335,239.66 91.5,239C 92.9255,237.286 92.5922,235.953 90.5,235C 91.965,232.129 94.2983,230.629 97.5,230.5C 97.5,226.5 99.5,224.5 103.5,224.5C 103.5,223.5 103.5,222.5 103.5,221.5C 105.401,221.567 107.234,221.233 109,220.5C 111.238,223.15 113.071,222.817 114.5,219.5C 115.086,219.709 115.586,220.043 116,220.5C 116.772,219.151 117.939,218.318 119.5,218C 118.027,217.29 117.36,216.124 117.5,214.5C 119.288,214.785 120.955,214.452 122.5,213.5C 125.452,209.786 129.285,207.453 134,206.5C 134.308,207.308 134.808,207.975 135.5,208.5C 140.517,206.061 145.517,204.061 150.5,202.5C 150.5,201.167 150.5,199.833 150.5,198.5C 149.448,198.649 148.448,198.483 147.5,198C 149.119,197.764 150.119,196.931 150.5,195.5C 154.468,192.722 158.802,190.555 163.5,189C 165.437,186.914 167.104,184.748 168.5,182.5C 169.688,181.316 170.855,181.316 172,182.5C 172.871,178.074 175.204,174.741 179,172.5C 179.333,172.833 179.667,173.167 180,173.5C 182.035,171.088 183.035,171.755 183,175.5C 183.5,175 184,174.5 184.5,174C 182.924,171.695 183.424,169.528 186,167.5C 186.667,169.5 186.667,171.5 186,173.5C 184.818,175.344 183.651,177.177 182.5,179C 183.167,180.667 183.833,182.333 184.5,184C 183.008,186.322 181.341,188.489 179.5,190.5C 178.179,192.853 178.179,195.186 179.5,197.5 Z"/></g>
<g><path style="opacity:1" fill="#be6e7f" d="M 172.5,229.5 C 171.514,231.408 169.848,232.408 167.5,232.5C 168.659,230.75 170.326,229.75 172.5,229.5 Z"/></g>
<g><path style="opacity:1" fill="#b24159" d="M 169.5,204.5 C 148.783,217.196 127.783,229.529 106.5,241.5C 105.374,242.808 105.374,244.142 106.5,245.5C 102.747,246.227 100.081,244.893 98.5,241.5C 97.4593,243.991 96.6259,243.991 96,241.5C 95.2888,243.367 95.7888,244.867 97.5,246C 97.273,247.135 96.9396,248.302 96.5,249.5C 95.914,249.709 95.414,250.043 95,250.5C 93.6012,249.773 92.1012,249.273 90.5,249C 89.8742,248.25 89.3742,247.416 89,246.5C 86.3699,248.692 84.8699,251.192 84.5,254C 82.6866,254.614 82.3533,254.281 83.5,253C 81.9391,252.682 80.7724,251.849 80,250.5C 79.5172,251.448 79.3505,252.448 79.5,253.5C 77.6096,253.297 76.1096,253.963 75,255.5C 74.6667,254.5 74.3333,253.5 74,252.5C 71.0724,253.441 68.739,255.108 67,257.5C 65.2117,256.7 63.545,256.366 62,256.5C 61.0853,257.328 60.4186,258.328 60,259.5C 59.9722,256.893 59.1388,254.226 57.5,251.5C 58.376,250.749 59.376,250.249 60.5,250C 59.944,249.617 59.6107,249.117 59.5,248.5C 61.4601,246.79 63.6268,246.457 66,247.5C 66.5725,245.359 67.4058,243.359 68.5,241.5C 79.6703,234.078 91.3369,227.411 103.5,221.5C 103.5,222.5 103.5,223.5 103.5,224.5C 99.5,224.5 97.5,226.5 97.5,230.5C 94.2983,230.629 91.965,232.129 90.5,235C 92.5922,235.953 92.9255,237.286 91.5,239C 94.5335,239.66 97.3669,239.16 100,237.5C 100.333,238.167 100.667,238.833 101,239.5C 104.038,235.65 105.705,235.983 106,240.5C 106.192,238.423 106.692,236.423 107.5,234.5C 111.159,233.899 114.826,233.233 118.5,232.5C 118.84,228.165 121.174,225.831 125.5,225.5C 128.324,222.493 131.491,219.827 135,217.5C 135.333,217.833 135.667,218.167 136,218.5C 138.379,216.116 141.213,214.616 144.5,214C 145.155,212.513 146.155,211.347 147.5,210.5C 148.711,211.274 148.711,212.107 147.5,213C 148.448,213.483 149.448,213.649 150.5,213.5C 150.33,212.178 150.663,211.011 151.5,210C 153.686,208.691 155.853,208.524 158,209.5C 158.862,207.913 159.529,206.246 160,204.5C 162.891,203.264 166.058,203.264 169.5,204.5 Z"/></g>
<g><path style="opacity:1" fill="#b35b6b" d="M 150.5,241.5 C 149.524,242.815 148.524,244.148 147.5,245.5C 139.763,249.768 131.763,251.768 123.5,251.5C 128.945,250.52 134.279,249.02 139.5,247C 142.973,244.682 146.639,242.849 150.5,241.5 Z"/></g>
<g><path style="opacity:1" fill="#e8bfc2" d="M 116.5,248.5 C 119.491,248.166 121.824,249.166 123.5,251.5C 120.843,251.065 118.509,250.065 116.5,248.5 Z"/></g>
<g><path style="opacity:1" fill="#b15266" d="M 68.5,241.5 C 67.4058,243.359 66.5725,245.359 66,247.5C 63.6268,246.457 61.4601,246.79 59.5,248.5C 55.8621,250.99 52.1955,253.49 48.5,256C 46.6547,257.128 44.6547,257.628 42.5,257.5C 42.5,257.167 42.5,256.833 42.5,256.5C 50.6671,250.673 59.3338,245.673 68.5,241.5 Z"/></g>
<g><path style="opacity:1" fill="#efced0" d="M 39.5,254.5 C 39.8212,256.048 40.8212,256.715 42.5,256.5C 42.5,256.833 42.5,257.167 42.5,257.5C 40.6854,258.63 38.6854,259.296 36.5,259.5C 36.2729,257.067 37.2729,255.401 39.5,254.5 Z"/></g>
</svg>
